<?xml version="1.0" encoding="UTF-8" standalone="no"?>
<!-- Created with Inkscape (http://www.inkscape.org/) -->

<svg
   width="229mm"
   height="324mm"
   viewBox="0 0 229 324"
   version="1.1"
   id="svg1"
   inkscape:version="1.3 (0e150ed6c4, 2023-07-21)"
   sodipodi:docname="kautliya_logo.svg"
   inkscape:export-filename="kautliya_logo.png"
   inkscape:export-xdpi="96"
   inkscape:export-ydpi="96"
   xmlns:inkscape="http://www.inkscape.org/namespaces/inkscape"
   xmlns:sodipodi="http://sodipodi.sourceforge.net/DTD/sodipodi-0.dtd"
   xmlns="http://www.w3.org/2000/svg"
   xmlns:svg="http://www.w3.org/2000/svg">
  <sodipodi:namedview
     id="namedview1"
     pagecolor="#ffffff"
     bordercolor="#000000"
     borderopacity="0.25"
     inkscape:showpageshadow="2"
     inkscape:pageopacity="0.0"
     inkscape:pagecheckerboard="false"
     inkscape:deskcolor="#d1d1d1"
     inkscape:document-units="mm"
     inkscape:zoom="0.74564394"
     inkscape:cx="713.47727"
     inkscape:cy="570.6477"
     inkscape:window-width="2400"
     inkscape:window-height="1261"
     inkscape:window-x="2391"
     inkscape:window-y="-9"
     inkscape:window-maximized="1"
     inkscape:current-layer="layer1"
     inkscape:clip-to-page="false" />
  <defs
     id="defs1">
    <inkscape:path-effect
       effect="spiro"
       id="path-effect4"
       is_visible="true"
       lpeversion="1" />
    <inkscape:path-effect
       effect="spiro"
       id="path-effect1"
       is_visible="true"
       lpeversion="1" />
  </defs>
  <g
     inkscape:label="Layer 1"
     inkscape:groupmode="layer"
     id="layer1">
    <path
       style="opacity:0.83;fill:none;stroke:#000000;stroke-width:1.177"
       d="m 56.419355,264 c 8.917832,-2.24484 16.868138,-8.10982 21.645161,-15.96775 3.736083,-6.14564 5.529267,-13.35026 5.832001,-20.53605 0.302734,-7.18579 -0.835638,-14.37237 -2.638454,-21.33492 -4.863374,-18.78255 -14.538226,-36.21919 -17.741935,-55.35483 -2.414113,-14.41941 -1.006789,-29.39797 3.548387,-43.29033 2.815093,-8.585461 6.842707,-16.819909 12.347739,-23.984371 5.505032,-7.164463 12.519556,-13.240659 20.652256,-17.176912 14.94271,-7.23232 33.07085,-6.703678 48.25807,0 15.1147,6.671667 27.48003,19.266468 34.06451,34.419353 6.90906,15.89983 7.46835,33.94199 4.96775,51.09678 -2.0497,14.06149 -6.10992,27.90115 -12.7742,40.45161 -4.54005,8.55002 -10.36203,16.72829 -12.06451,26.25806 -1.02864,5.75788 -0.46118,11.7621 1.39415,17.30909 1.85533,5.54699 4.97726,10.63919 8.89617,14.98124 4.69944,5.20686 10.56111,9.35888 17.03225,12.06452"
       id="path1"
       inkscape:path-effect="#path-effect1"
       inkscape:original-d="m 56.419355,264 c 5.44086,-6.74194 16.204301,-9.22582 21.645161,-15.96775 5.440859,-6.74194 2.72043,-26.96774 3.193547,-41.87097 0.473118,-14.90322 -14.193547,-39.26881 -17.741935,-55.35483 -3.548388,-16.08602 3.548387,-28.3871 3.548387,-43.29033 0,-14.903218 19.752688,-28.860206 32.999995,-41.161283 13.24731,-12.301075 33.23656,0.946238 48.25807,0 15.0215,-0.946237 24.36559,22.946238 34.06451,34.419353 9.69893,11.47312 1.65592,34.06452 4.96775,51.09678 3.31182,17.03225 -8.51613,26.96774 -12.7742,40.45161 -4.25806,13.48387 -8.04301,17.50538 -12.06451,26.25806 -4.02151,8.75269 6.86021,21.52688 10.29032,32.29033 3.43011,10.76344 11.82795,7.21505 17.03225,12.06452"
       sodipodi:nodetypes="csssssssssssc" />
    <path
       style="opacity:0.83;fill:#000000;fill-opacity:1;stroke:#000000;stroke-width:1.177"
       d="m 103.25807,253.35483 c 7.23352,-8.26844 12.81537,-17.97601 16.32257,-28.38709 2.45336,-7.28277 3.8937,-15.17717 2.1112,-22.65249 -1.78073,-7.46791 -6.61608,-13.89818 -8.63789,-21.30446 -1.47603,-5.40699 -1.39081,-11.09997 -1.30876,-16.70421 0.082,-5.60423 0.1387,-11.30143 -1.39035,-16.69367 -2.48984,-8.78052 -8.97485,-16.0278 -11.354841,-24.83872 -1.505135,-5.57213 -1.25639,-11.6056 0.709676,-17.03226 1.698905,-4.68925 4.643555,-8.888989 8.304575,-12.276065 3.2853,-3.039476 7.21762,-5.472143 11.56639,-6.530383 5.09547,-1.239945 10.44686,-0.546997 15.6129,0.354838 4.53093,0.790964 9.20675,1.814063 12.85661,4.612904 3.75784,2.881645 6.00297,7.359487 7.22222,11.935366 1.3129,4.92735 1.57162,10.0902 1.25085,15.17936 -0.19506,3.0947 -0.61309,6.21978 -1.81354,9.07882 -1.23169,2.93346 -3.2369,5.47047 -5.32458,7.87127 -2.08769,2.4008 -4.29363,4.72102 -6.03026,7.3868 -2.22828,3.42048 -3.61692,7.30451 -5.30475,11.02152 -2.03575,4.48322 -4.53324,8.77805 -6.05009,13.46235 -1.54194,4.76177 -2.02667,9.89608 -1.13279,14.82082 0.62145,3.42378 1.88809,6.69067 2.90698,10.01789 1.60008,5.22513 2.59869,10.74519 1.84615,16.15776 -0.40139,2.88695 -1.29737,5.69706 -2.55582,8.32611 -1.91682,4.00447 -4.64708,7.55841 -7.45162,11 -2.3343,2.86453 -4.73455,5.67458 -7.09677,8.51613 -1.18111,1.42077 -2.35277,2.84948 -3.54839,4.25806 -3.68363,4.33973 -7.59394,8.48703 -11.70967,12.41935 z"
       id="path4"
       inkscape:path-effect="#path-effect4"
       inkscape:original-d="m 103.25807,253.35483 c 2.95699,-6.97849 13.36558,-21.4086 16.32257,-28.38709 2.95699,-6.97849 1.99292,-16.14711 2.1112,-22.65249 0.11828,-6.50538 -5.0895,-12.90661 -8.63789,-21.30446 -3.54839,-8.39785 -3.40878,-23.93552 -2.69911,-33.39788 0.70968,-9.46237 -7.21506,-15.13979 -11.354841,-24.83872 -4.139784,-9.69892 0.473118,-11.35484 0.709676,-17.03226 0.236561,-5.67741 4.992745,-8.727677 8.304575,-12.276065 3.31183,-3.548388 10.01683,-21.456937 11.56639,-6.530383 1.54956,14.926558 12.17138,14.417628 15.6129,0.354838 3.44152,-14.062787 26.58026,4.931603 12.85661,4.612904 -13.72365,-0.318699 4.38365,14.276946 7.22222,11.935366 2.83857,-2.34158 0.54118,11.03957 1.25085,15.17936 0.70967,4.13979 -0.74902,5.88527 -1.81354,9.07882 -1.06452,3.19355 -7.5699,10.17205 -11.35484,15.25807 -3.78495,5.08602 -2.82087,7.82797 -5.30475,11.02152 -2.48387,3.19355 -4.74902,8.49461 -6.05009,13.46235 -1.30108,4.96774 -1.84247,10.08963 -1.13279,14.82082 0.70968,4.73118 3.02526,6.4695 2.90698,10.01789 -0.11828,3.54838 3.02895,11.19002 1.84615,16.15776 -1.18279,4.96775 -3.50206,5.13256 -2.55582,8.32611 0.94623,3.19355 -4.96775,7.33333 -7.45162,11 -2.48387,3.66666 -4.73118,5.67742 -7.09677,8.51613 -2.36559,2.83871 -2.36559,2.83871 -3.54839,4.25806 -1.1828,1.41936 -10.29032,10.76344 -11.70967,12.41935 z"
       sodipodi:nodetypes="csssssszzzzzzzssssssssssc"
       transform="translate(-1.0645161,11)" />
  </g>
</svg>
